<svg width="14" height="10" viewBox="0 0 14 10" fill="none" xmlns="http://www.w3.org/2000/svg">
<path d="M8.52667 0.806664C8.26667 1.06666 8.26667 1.48666 8.52667 1.74666L11.1133 4.33333H1C0.633336 4.33333 0.333336 4.63333 0.333336 5C0.333336 5.36666 0.633336 5.66666 1 5.66666H11.12L8.53334 8.25333C8.27334 8.51333 8.27334 8.93333 8.53334 9.19333C8.79334 9.45333 9.21334 9.45333 9.47334 9.19333L13.2 5.46666C13.46 5.20666 13.46 4.78666 13.2 4.52666L9.46667 0.806664C9.21334 0.546664 8.78667 0.546664 8.52667 0.806664Z" fill="url(#paint0_linear)"/>
<defs>
<linearGradient id="paint0_linear" x1="5.9599" y1="0.611664" x2="10.8657" y2="7.40585" gradientUnits="userSpaceOnUse">
<stop stop-color="#2C96DD"/>
<stop offset="1" stop-color="#6C53DF"/>
</linearGradient>
</defs>
</svg>
