<svg width="17" height="16" viewBox="0 0 17 16" fill="none" xmlns="http://www.w3.org/2000/svg">
<path fill-rule="evenodd" clip-rule="evenodd" d="M0 8.19792C0 3.67146 3.67143 0 8.19791 0C12.7244 0 16.3958 3.67146 16.4461 8.19792C16.4461 11.8191 14.1326 14.887 10.8635 15.9935C10.4612 16.0438 10.3103 15.7923 10.3103 15.5911V13.3279C10.3103 12.5735 10.0588 12.0706 9.75705 11.8191C11.5676 11.6179 13.4788 10.9641 13.4788 7.79557C13.4788 6.89028 13.1267 6.13587 12.6238 5.58264C12.6278 5.56683 12.6333 5.547 12.6399 5.52332C12.7169 5.24558 12.9403 4.43954 12.5232 3.41999C12.5232 3.41999 11.8191 3.21882 10.26 4.27499C9.60617 4.12411 8.90201 4.02352 8.19791 4.02352C7.49381 4.02352 6.78972 4.07381 6.13587 4.27499C4.57673 3.21882 3.87263 3.41999 3.87263 3.41999C3.42814 4.50656 3.71115 5.35063 3.76912 5.52352L3.77206 5.53234C3.21879 6.13587 2.91702 6.83998 2.91702 7.74528C2.91702 10.9138 4.82824 11.6179 6.63883 11.8191C6.43764 12.0203 6.18619 12.3723 6.13587 12.9256C5.68322 13.1267 4.52648 13.4788 3.77206 12.2214C3.77206 12.2214 3.31942 11.4167 2.51469 11.3664C2.51469 11.3664 1.71002 11.3664 2.46444 11.8694C2.46444 11.8694 3.01765 12.1209 3.36967 13.0764C3.36967 13.0764 3.87263 14.6859 6.13587 14.1829V15.5911C6.13587 15.7923 5.98499 16.0438 5.58266 15.9935C2.36381 14.887 0 11.8191 0 8.19792Z" fill="white"/>
</svg>
